<svg width="25" height="25" viewBox="0 0 25 25" fill="none" xmlns="http://www.w3.org/2000/svg">
<g clip-path="url(#clip0_318_61)">
<path d="M12.5 25C19.4036 25 25 19.4036 25 12.5C25 5.59644 19.4036 0 12.5 0C5.59644 0 0 5.59644 0 12.5C0 19.4036 5.59644 25 12.5 25Z" fill="url(#paint0_linear_318_61)"/>
<path fill-rule="evenodd" clip-rule="evenodd" d="M5.65819 12.368C9.30219 10.7804 11.7321 9.73374 12.9479 9.22805C16.4193 7.78418 17.1406 7.53336 17.6108 7.52508C17.7142 7.52326 17.9454 7.54889 18.0951 7.67041C18.2216 7.77302 18.2564 7.91164 18.273 8.00893C18.2897 8.10621 18.3104 8.32784 18.2939 8.50101C18.1058 10.4776 17.2919 15.2741 16.8778 17.4879C16.7025 18.4246 16.3575 18.7387 16.0235 18.7694C15.2976 18.8362 14.7464 18.2897 14.0433 17.8288C12.9431 17.1076 12.3216 16.6587 11.2537 15.955C10.0196 15.1417 10.8196 14.6947 11.523 13.9642C11.707 13.773 14.9054 10.8639 14.9673 10.6C14.975 10.567 14.9822 10.444 14.9091 10.379C14.836 10.314 14.7281 10.3363 14.6503 10.3539C14.5399 10.379 12.7824 11.5406 9.37771 13.8389C8.87885 14.1815 8.42699 14.3484 8.02214 14.3396C7.57582 14.33 6.71729 14.0873 6.07907 13.8798C5.29625 13.6253 4.67409 13.4908 4.72826 13.0586C4.75648 12.8336 5.06646 12.6034 5.65819 12.368Z" fill="white"/>
</g>
<defs>
<linearGradient id="paint0_linear_318_61" x1="12.5" y1="0" x2="12.5" y2="24.8146" gradientUnits="userSpaceOnUse">
<stop/>
</linearGradient>
<clipPath id="clip0_318_61">
<rect width="25" height="25" fill="white"/>
</clipPath>
</defs>
</svg>
