<svg width="25" height="29" viewBox="0 0 25 29" fill="none" xmlns="http://www.w3.org/2000/svg">
<path d="M24.547 0.778809L22.3286 25.621L12.3567 28.3845L2.41235 25.6249L0.196289 0.778809H24.547Z" fill="#264DE4"/>
<path d="M20.4293 24.0393L22.3251 2.81042H12.3716V26.2723L20.4293 24.0393Z" fill="#2965F1"/>
<path d="M5.27661 12.0254L5.54983 15.0726H12.3717V12.0254H5.27661Z" fill="#EBEBEB"/>
<path d="M12.3716 5.85767H12.3611H4.72754L5.00466 8.90498H12.3716V5.85767Z" fill="#EBEBEB"/>
<path d="M12.3717 23.1099V19.9395L12.3583 19.943L8.96323 19.0267L8.7462 16.5963H7.09646H5.68604L6.11312 21.381L12.3576 23.1138L12.3717 23.1099Z" fill="#EBEBEB"/>
<path d="M16.1149 15.0727L15.7611 19.0248L12.3611 19.9421V23.1124L18.6106 21.381L18.6564 20.8662L19.3728 12.8437L19.4472 12.0254L19.9975 5.85767H12.3611V8.90498H16.6567L16.3793 12.0254H12.3611V15.0727H16.1149Z" fill="white"/>
</svg>
