<svg width="18" height="27" viewBox="0 0 18 27" fill="none" xmlns="http://www.w3.org/2000/svg">
<path d="M4.9153 27.0001C7.3229 27.0001 9.27689 24.9841 9.27689 22.5001V18.0001H4.9153C2.5077 18.0001 0.553711 20.0161 0.553711 22.5001C0.553711 24.9841 2.5077 27.0001 4.9153 27.0001Z" fill="#0ACF83"/>
<path d="M0.553711 13.5C0.553711 11.016 2.5077 9 4.9153 9H9.27689V17.9999H4.9153C2.5077 17.9999 0.553711 15.984 0.553711 13.5Z" fill="#A259FF"/>
<path d="M0.553711 4.49997C0.553711 2.01599 2.5077 0 4.9153 0H9.27689V8.99995H4.9153C2.5077 8.99995 0.553711 6.98396 0.553711 4.49997Z" fill="#F24E1E"/>
<path d="M9.27686 0H13.6384C16.046 0 18 2.01599 18 4.49997C18 6.98396 16.046 8.99995 13.6384 8.99995H9.27686V0Z" fill="#FF7262"/>
<path d="M18 13.5C18 15.984 16.046 17.9999 13.6384 17.9999C11.2308 17.9999 9.27686 15.984 9.27686 13.5C9.27686 11.016 11.2308 9 13.6384 9C16.046 9 18 11.016 18 13.5Z" fill="#1ABCFE"/>
</svg>
