<svg width="25" height="29" viewBox="0 0 25 29" fill="none" xmlns="http://www.w3.org/2000/svg">
<path d="M24.6007 0.515015L22.3823 25.3573L12.4104 28.1207L2.46606 25.3611L0.25 0.515015H24.6007Z" fill="#264DE4"/>
<path d="M20.483 23.7755L22.3788 2.54663H12.4253V26.0085L20.483 23.7755Z" fill="#2965F1"/>
<path d="M5.33032 11.7616L5.60355 14.8088H12.4254V11.7616H5.33032Z" fill="#EBEBEB"/>
<path d="M12.4253 5.59387H12.4148H4.78125L5.05837 8.64118H12.4253V5.59387Z" fill="#EBEBEB"/>
<path d="M12.4254 22.8461V19.6757L12.412 19.6793L9.01695 18.7629L8.79991 16.3325H7.15017H5.73975L6.16683 21.1172L12.4114 22.85L12.4254 22.8461Z" fill="#EBEBEB"/>
<path d="M16.1686 14.8089L15.8148 18.761L12.4148 19.6783V22.8486L18.6643 21.1172L18.7101 20.6024L19.4265 12.5799L19.5009 11.7616L20.0512 5.59387H12.4148V8.64118H16.7104L16.433 11.7616H12.4148V14.8089H16.1686Z" fill="white"/>
</svg>
