<svg width="25" height="30" viewBox="0 0 15 23" fill="none" xmlns="http://www.w3.org/2000/svg">
<path d="M3.91666 22.5151C5.94065 22.5151 7.58331 20.8724 7.58331 18.8484V15.1818H3.91666C1.89266 15.1818 0.25 16.8244 0.25 18.8484C0.25 20.8724 1.89266 22.5151 3.91666 22.5151Z" fill="#0ACF83"/>
<path d="M0.25 11.515C0.25 9.49105 1.89266 7.84839 3.91666 7.84839H7.58331V15.1817H3.91666C1.89266 15.1817 0.25 13.539 0.25 11.515Z" fill="#A259FF"/>
<path d="M0.25 4.18167C0.25 2.15768 1.89266 0.515015 3.91666 0.515015H7.58331V7.84832H3.91666C1.89266 7.84832 0.25 6.20566 0.25 4.18167Z" fill="#F24E1E"/>
<path d="M7.58325 0.515015H11.2499C13.2739 0.515015 14.9166 2.15768 14.9166 4.18167C14.9166 6.20566 13.2739 7.84832 11.2499 7.84832H7.58325V0.515015Z" fill="#FF7262"/>
<path d="M14.9166 11.515C14.9166 13.539 13.2739 15.1817 11.2499 15.1817C9.22591 15.1817 7.58325 13.539 7.58325 11.515C7.58325 9.49105 9.22591 7.84839 11.2499 7.84839C13.2739 7.84839 14.9166 9.49105 14.9166 11.515Z" fill="#1ABCFE"/>
</svg>
